<svg width="364" height="14" viewBox="0 0 364 14" fill="none" xmlns="http://www.w3.org/2000/svg">
<path d="M0.888 11V10.22C1.68 9.636 2.34 9.124 2.868 8.684C3.404 8.244 3.832 7.844 4.152 7.484C4.472 7.124 4.7 6.784 4.836 6.464C4.972 6.136 5.04 5.796 5.04 5.444C5.04 4.972 4.888 4.592 4.584 4.304C4.288 4.008 3.88 3.86 3.36 3.86C2.816 3.86 2.38 4.04 2.052 4.4C1.724 4.752 1.532 5.224 1.476 5.816L0.636 5.312C0.708 4.848 0.856 4.44 1.08 4.088C1.312 3.736 1.62 3.46 2.004 3.26C2.396 3.06 2.86 2.96 3.396 2.96C3.804 2.96 4.168 3.02 4.488 3.14C4.816 3.26 5.096 3.432 5.328 3.656C5.56 3.872 5.736 4.132 5.856 4.436C5.984 4.74 6.048 5.076 6.048 5.444C6.048 5.94 5.928 6.428 5.688 6.908C5.448 7.38 5.052 7.876 4.5 8.396C3.948 8.916 3.2 9.492 2.256 10.124V10.136C2.344 10.128 2.464 10.124 2.616 10.124C2.776 10.116 2.932 10.112 3.084 10.112C3.244 10.104 3.364 10.1 3.444 10.1H6.216V11H0.888ZM8.53209 4.88C8.76409 4.88 8.95209 4.952 9.09609 5.096C9.24009 5.24 9.31209 5.428 9.31209 5.66C9.31209 5.892 9.24009 6.08 9.09609 6.224C8.95209 6.368 8.76409 6.44 8.53209 6.44C8.30009 6.44 8.11209 6.368 7.96809 6.224C7.82409 6.08 7.75209 5.892 7.75209 5.66C7.75209 5.428 7.82409 5.24 7.96809 5.096C8.11209 4.952 8.30009 4.88 8.53209 4.88ZM8.53209 9.56C8.76409 9.56 8.95209 9.632 9.09609 9.776C9.24009 9.92 9.31209 10.108 9.31209 10.34C9.31209 10.572 9.24009 10.76 9.09609 10.904C8.95209 11.048 8.76409 11.12 8.53209 11.12C8.30009 11.12 8.11209 11.048 7.96809 10.904C7.82409 10.76 7.75209 10.572 7.75209 10.34C7.75209 10.108 7.82409 9.92 7.96809 9.776C8.11209 9.632 8.30009 9.56 8.53209 9.56ZM12.5629 11V5.192C12.5629 5.056 12.5629 4.912 12.5629 4.76C12.5709 4.6 12.5789 4.436 12.5869 4.268C12.3149 4.532 11.9989 4.764 11.6389 4.964C11.2789 5.156 10.9109 5.296 10.5349 5.384L10.2829 4.508C10.4269 4.492 10.6069 4.44 10.8229 4.352C11.0469 4.256 11.2789 4.14 11.5189 4.004C11.7669 3.86 11.9949 3.708 12.2029 3.548C12.4109 3.388 12.5709 3.232 12.6829 3.08H13.5229V11H12.5629ZM15.3907 11V10.22C16.1827 9.636 16.8427 9.124 17.3707 8.684C17.9067 8.244 18.3347 7.844 18.6547 7.484C18.9747 7.124 19.2027 6.784 19.3387 6.464C19.4747 6.136 19.5427 5.796 19.5427 5.444C19.5427 4.972 19.3907 4.592 19.0867 4.304C18.7907 4.008 18.3827 3.86 17.8627 3.86C17.3187 3.86 16.8827 4.04 16.5547 4.4C16.2267 4.752 16.0347 5.224 15.9787 5.816L15.1387 5.312C15.2107 4.848 15.3587 4.44 15.5827 4.088C15.8147 3.736 16.1227 3.46 16.5067 3.26C16.8987 3.06 17.3627 2.96 17.8987 2.96C18.3067 2.96 18.6707 3.02 18.9907 3.14C19.3187 3.26 19.5987 3.432 19.8307 3.656C20.0627 3.872 20.2387 4.132 20.3587 4.436C20.4867 4.74 20.5507 5.076 20.5507 5.444C20.5507 5.94 20.4307 6.428 20.1907 6.908C19.9507 7.38 19.5547 7.876 19.0027 8.396C18.4507 8.916 17.7027 9.492 16.7587 10.124V10.136C16.8467 10.128 16.9667 10.124 17.1187 10.124C17.2787 10.116 17.4347 10.112 17.5867 10.112C17.7467 10.104 17.8667 10.1 17.9467 10.1H20.7187V11H15.3907Z" fill="#454343"/>
<mask id="path-2-inside-1_85_80" fill="white">
<path d="M32 5.5H332V8.5H32V5.5Z"/>
</mask>
<path d="M32 5.5H332V8.5H32V5.5Z" fill="#E3E3E3"/>
<path d="M182 8.5V5.5H-118V8.5H182Z" fill="#7D4343" mask="url(#path-2-inside-1_85_80)"/>
<circle cx="179" cy="7" r="4" fill="#7C1111"/>
<path d="M345.48 11.12C344.776 11.12 344.152 10.956 343.608 10.628C343.072 10.292 342.708 9.832 342.516 9.248L343.476 8.756C343.572 9.052 343.704 9.312 343.872 9.536C344.04 9.752 344.26 9.92 344.532 10.04C344.812 10.16 345.16 10.22 345.576 10.22C345.928 10.22 346.224 10.156 346.464 10.028C346.704 9.9 346.888 9.728 347.016 9.512C347.144 9.288 347.208 9.032 347.208 8.744C347.208 8.456 347.152 8.216 347.04 8.024C346.936 7.832 346.768 7.692 346.536 7.604C346.304 7.508 346 7.46 345.624 7.46C345.536 7.46 345.44 7.464 345.336 7.472C345.232 7.472 345.124 7.48 345.012 7.496V6.536C345.084 6.544 345.152 6.548 345.216 6.548C345.288 6.548 345.352 6.548 345.408 6.548C345.992 6.548 346.408 6.436 346.656 6.212C346.904 5.98 347.028 5.62 347.028 5.132C347.028 4.716 346.9 4.4 346.644 4.184C346.388 3.968 346.024 3.86 345.552 3.86C345.048 3.86 344.664 3.972 344.4 4.196C344.136 4.412 343.928 4.708 343.776 5.084L342.864 4.652C342.992 4.316 343.184 4.02 343.44 3.764C343.696 3.508 344.004 3.308 344.364 3.164C344.732 3.02 345.136 2.948 345.576 2.948C346.128 2.948 346.584 3.044 346.944 3.236C347.304 3.42 347.572 3.668 347.748 3.98C347.932 4.292 348.024 4.636 348.024 5.012C348.024 5.3 347.984 5.56 347.904 5.792C347.824 6.016 347.712 6.212 347.568 6.38C347.432 6.548 347.276 6.684 347.1 6.788C346.924 6.884 346.736 6.948 346.536 6.98V7.004C346.8 7.012 347.032 7.064 347.232 7.16C347.44 7.256 347.616 7.384 347.76 7.544C347.904 7.704 348.012 7.888 348.084 8.096C348.164 8.296 348.204 8.508 348.204 8.732C348.204 9.196 348.088 9.608 347.856 9.968C347.632 10.328 347.316 10.612 346.908 10.82C346.5 11.02 346.024 11.12 345.48 11.12ZM350.532 4.88C350.764 4.88 350.952 4.952 351.096 5.096C351.24 5.24 351.312 5.428 351.312 5.66C351.312 5.892 351.24 6.08 351.096 6.224C350.952 6.368 350.764 6.44 350.532 6.44C350.3 6.44 350.112 6.368 349.968 6.224C349.824 6.08 349.752 5.892 349.752 5.66C349.752 5.428 349.824 5.24 349.968 5.096C350.112 4.952 350.3 4.88 350.532 4.88ZM350.532 9.56C350.764 9.56 350.952 9.632 351.096 9.776C351.24 9.92 351.312 10.108 351.312 10.34C351.312 10.572 351.24 10.76 351.096 10.904C350.952 11.048 350.764 11.12 350.532 11.12C350.3 11.12 350.112 11.048 349.968 10.904C349.824 10.76 349.752 10.572 349.752 10.34C349.752 10.108 349.824 9.92 349.968 9.776C350.112 9.632 350.3 9.56 350.532 9.56ZM355.547 11.12C354.843 11.12 354.219 10.956 353.675 10.628C353.139 10.292 352.775 9.832 352.583 9.248L353.543 8.756C353.639 9.052 353.771 9.312 353.939 9.536C354.107 9.752 354.327 9.92 354.599 10.04C354.879 10.16 355.227 10.22 355.643 10.22C355.995 10.22 356.291 10.156 356.531 10.028C356.771 9.9 356.955 9.728 357.083 9.512C357.211 9.288 357.275 9.032 357.275 8.744C357.275 8.456 357.219 8.216 357.107 8.024C357.003 7.832 356.835 7.692 356.603 7.604C356.371 7.508 356.067 7.46 355.691 7.46C355.603 7.46 355.507 7.464 355.403 7.472C355.299 7.472 355.191 7.48 355.079 7.496V6.536C355.151 6.544 355.219 6.548 355.283 6.548C355.355 6.548 355.419 6.548 355.475 6.548C356.059 6.548 356.475 6.436 356.723 6.212C356.971 5.98 357.095 5.62 357.095 5.132C357.095 4.716 356.967 4.4 356.711 4.184C356.455 3.968 356.091 3.86 355.619 3.86C355.115 3.86 354.731 3.972 354.467 4.196C354.203 4.412 353.995 4.708 353.843 5.084L352.931 4.652C353.059 4.316 353.251 4.02 353.507 3.764C353.763 3.508 354.071 3.308 354.431 3.164C354.799 3.02 355.203 2.948 355.643 2.948C356.195 2.948 356.651 3.044 357.011 3.236C357.371 3.42 357.639 3.668 357.815 3.98C357.999 4.292 358.091 4.636 358.091 5.012C358.091 5.3 358.051 5.56 357.971 5.792C357.891 6.016 357.779 6.212 357.635 6.38C357.499 6.548 357.343 6.684 357.167 6.788C356.991 6.884 356.803 6.948 356.603 6.98V7.004C356.867 7.012 357.099 7.064 357.299 7.16C357.507 7.256 357.683 7.384 357.827 7.544C357.971 7.704 358.079 7.888 358.151 8.096C358.231 8.296 358.271 8.508 358.271 8.732C358.271 9.196 358.155 9.608 357.923 9.968C357.699 10.328 357.383 10.612 356.975 10.82C356.567 11.02 356.091 11.12 355.547 11.12ZM361.319 11V5.192C361.319 5.056 361.319 4.912 361.319 4.76C361.327 4.6 361.335 4.436 361.343 4.268C361.071 4.532 360.755 4.764 360.395 4.964C360.035 5.156 359.667 5.296 359.291 5.384L359.039 4.508C359.183 4.492 359.363 4.44 359.579 4.352C359.803 4.256 360.035 4.14 360.275 4.004C360.523 3.86 360.751 3.708 360.959 3.548C361.167 3.388 361.327 3.232 361.439 3.08H362.279V11H361.319Z" fill="#454343"/>
</svg>
