<svg width="61" height="61" viewBox="0 0 61 61" fill="none" xmlns="http://www.w3.org/2000/svg">
<path d="M27.0688 48.5713V12.4288C27.0688 8.9975 25.62 7.625 21.96 7.625H12.7338C9.07375 7.625 7.625 8.9975 7.625 12.4288V48.5713C7.625 52.0025 9.07375 53.375 12.7338 53.375H21.96C25.62 53.375 27.0688 52.0025 27.0688 48.5713ZM53.3801 48.5713V12.4288C53.3801 8.9975 51.9313 7.625 48.2713 7.625H39.0451C35.4105 7.625 33.9363 8.9975 33.9363 12.4288V48.5713C33.9363 52.0025 35.3851 53.375 39.0451 53.375H48.2713C51.9313 53.375 53.3801 52.0025 53.3801 48.5713Z" fill="black"/>
</svg>
