<svg width="24" height="24" viewBox="0 0 24 24" fill="none" xmlns="http://www.w3.org/2000/svg">
<path d="M17.418 4.411H5.388L7.268 2.531C7.558 2.241 7.558 1.761 7.268 1.471C7.12687 1.33152 6.93643 1.2533 6.738 1.2533C6.53957 1.2533 6.34914 1.33152 6.208 1.471L3.048 4.631C2.90964 4.77306 2.83092 4.96271 2.828 5.161C2.83092 5.35928 2.90964 5.54893 3.048 5.691L6.208 8.851C6.358 9.001 6.548 9.071 6.738 9.071C6.928 9.071 7.118 9.001 7.268 8.851C7.558 8.561 7.558 8.081 7.268 7.791L5.388 5.911H17.418C18.658 5.911 19.668 6.921 19.668 8.161V11.481C19.668 11.891 20.008 12.231 20.418 12.231C20.828 12.231 21.168 11.891 21.168 11.481V8.161C21.168 6.091 19.488 4.411 17.418 4.411ZM21.168 18.84C21.1651 18.6417 21.0864 18.4521 20.948 18.31L17.788 15.15C17.6469 15.0105 17.4564 14.9323 17.258 14.9323C17.0596 14.9323 16.8691 15.0105 16.728 15.15C16.438 15.44 16.438 15.92 16.728 16.21L18.608 18.09H6.578C5.338 18.09 4.328 17.08 4.328 15.84V12.52C4.328 12.11 3.988 11.77 3.578 11.77C3.168 11.77 2.828 12.11 2.828 12.52V15.84C2.828 17.91 4.508 19.59 6.578 19.59H18.608L16.728 21.47C16.438 21.76 16.438 22.24 16.728 22.53C16.878 22.68 17.068 22.75 17.258 22.75C17.448 22.75 17.638 22.68 17.788 22.53L20.948 19.37C21.0864 19.2279 21.1651 19.0383 21.168 18.84Z" fill="black"/>
</svg>
