<svg width="24" height="24" viewBox="0 0 24 24" fill="none" xmlns="http://www.w3.org/2000/svg">
<path d="M21.75 17.98C21.75 17.96 21.74 17.94 21.74 17.92C21.73 17.84 21.72 17.76 21.69 17.69C21.6519 17.6062 21.6013 17.5287 21.54 17.46C21.54 17.46 21.54 17.45 21.53 17.45C21.3879 17.3117 21.1983 17.2329 21 17.23L16.33 17.25H16.32C15.72 17.25 15.14 16.97 14.78 16.49L13.56 14.92C13.5004 14.8414 13.4257 14.7755 13.3403 14.7263C13.2548 14.677 13.1603 14.6454 13.0625 14.6333C12.9646 14.6212 12.8652 14.6288 12.7704 14.6557C12.6755 14.6826 12.5869 14.7283 12.51 14.79C12.4316 14.8497 12.3659 14.9245 12.3169 15.01C12.2678 15.0955 12.2362 15.1899 12.2241 15.2877C12.212 15.3855 12.2196 15.4847 12.2463 15.5796C12.2731 15.6744 12.3185 15.763 12.38 15.84L13.6 17.41C14.25 18.25 15.27 18.75 16.33 18.75H16.34L19.19 18.74L18.48 19.45C18.19 19.74 18.19 20.22 18.48 20.51C18.63 20.66 18.82 20.73 19.01 20.73C19.2 20.73 19.39 20.66 19.54 20.51L21.54 18.51C21.61 18.44 21.66 18.36 21.7 18.27C21.73 18.17 21.75 18.07 21.75 17.98ZM8.42 6.69201C8.09995 6.24888 7.67918 5.88814 7.19236 5.63952C6.70555 5.39089 6.16663 5.26151 5.62 5.26201H5.6L3 5.27201C2.59 5.27201 2.25 5.61201 2.25 6.02201C2.25 6.43201 2.59 6.77201 3 6.77201L5.61 6.76201H5.62C6.25 6.76201 6.84 7.06201 7.2 7.57201L8.28 9.07201C8.43 9.27201 8.66 9.38201 8.89 9.38201C9.04 9.38201 9.2 9.33201 9.33 9.24201C9.67 8.99201 9.74 8.52201 9.5 8.19201L8.42 6.69201ZM21.74 6.07901C21.74 6.05901 21.75 6.03901 21.75 6.02901C21.7471 5.83072 21.6684 5.64108 21.53 5.49901L19.53 3.49901C19.3889 3.35953 19.1984 3.28131 19 3.28131C18.8016 3.28131 18.6111 3.35953 18.47 3.49901C18.18 3.78901 18.18 4.26901 18.47 4.55901L19.18 5.26901L16.45 5.25901H16.43C15.28 5.25901 14.2 5.82901 13.56 6.79901L7.17 16.379C6.81 16.919 6.2 17.249 5.55 17.249H5.54L3 17.229C2.80109 17.229 2.61032 17.308 2.46967 17.4487C2.32902 17.5893 2.25 17.7801 2.25 17.979C2.25 18.1779 2.32902 18.3687 2.46967 18.5093C2.61032 18.65 2.80109 18.729 3 18.729L5.55 18.739H5.57C6.73 18.739 7.8 18.169 8.44 17.199L14.83 7.61901C15.19 7.07901 15.8 6.74901 16.45 6.74901H16.46L21 6.76901C21.1988 6.76851 21.3893 6.68943 21.53 6.54901C21.53 6.54901 21.53 6.53901 21.54 6.53901C21.6609 6.41544 21.7321 6.2517 21.74 6.07901Z" fill="black"/>
</svg>
