<svg width="24" height="24" viewBox="0 0 24 24" fill="none" xmlns="http://www.w3.org/2000/svg">
<path d="M18 16.75C17.8607 16.75 17.7242 16.7112 17.6057 16.638C17.4872 16.5648 17.3915 16.46 17.3292 16.3354C17.2669 16.2108 17.2405 16.0714 17.253 15.9326C17.2655 15.7939 17.3164 15.6614 17.4 15.55C18.1645 14.5243 18.5775 13.2793 18.5775 12C18.5775 10.7207 18.1645 9.47566 17.4 8.45C17.2807 8.29087 17.2294 8.09085 17.2575 7.89394C17.2857 7.69702 17.3909 7.51935 17.55 7.4C17.7091 7.28066 17.9092 7.22941 18.1061 7.25754C18.303 7.28567 18.4807 7.39087 18.6 7.55C20.56 10.17 20.56 13.83 18.6 16.45C18.45 16.65 18.23 16.75 18 16.75Z" fill="black"/>
<path d="M19.828 19.25C19.6887 19.25 19.5522 19.2112 19.4337 19.138C19.3152 19.0648 19.2195 18.96 19.1572 18.8354C19.0949 18.7108 19.0685 18.5714 19.081 18.4327C19.0935 18.2939 19.1444 18.1614 19.228 18.05C21.898 14.49 21.898 9.51001 19.228 5.95001C19.1087 5.79088 19.0574 5.59086 19.0855 5.39395C19.1137 5.19703 19.2189 5.01936 19.378 4.90001C19.5371 4.78067 19.7372 4.72942 19.9341 4.75755C20.131 4.78568 20.3087 4.89088 20.428 5.05001C23.498 9.14001 23.498 14.86 20.428 18.95C20.288 19.15 20.058 19.25 19.828 19.25ZM14.02 3.78201C12.9 3.16201 11.47 3.32201 10.01 4.23201L7.09 6.06201C6.89 6.18201 6.66 6.25201 6.43 6.25201H5C2.58 6.25201 1.25 7.58201 1.25 10.002V14.002C1.25 16.422 2.58 17.752 5 17.752H6.43C6.66 17.752 6.89 17.822 7.09 17.942L10.01 19.772C10.89 20.322 11.75 20.592 12.55 20.592C13.0636 20.5965 13.5698 20.4691 14.02 20.222C15.13 19.602 15.75 18.312 15.75 16.592V7.41201C15.75 5.69201 15.13 4.40201 14.02 3.78201Z" fill="black"/>
</svg>
